<svg width="70" height="70" viewBox="0 0 70 70" fill="none" xmlns="http://www.w3.org/2000/svg">
<circle cx="35" cy="35" r="32.5" stroke="black" stroke-width="5"/>
<path d="M57.6898 17.9281C57.6299 17.8098 57.5405 17.7109 57.4312 17.6421C57.3218 17.5732 57.1967 17.5371 57.0694 17.5375H50.449C50.2205 17.5375 50.0037 17.6562 49.8731 17.8562L42.5819 28.8812L35.2876 17.8531C35.2235 17.7547 35.1376 17.6741 35.0372 17.6186C34.9368 17.563 34.8251 17.5341 34.7117 17.5344H28.0914C27.8331 17.5344 27.5956 17.6844 27.4739 17.925C27.3522 18.1656 27.367 18.4594 27.5095 18.6844L38.3692 35.7344V51.1437C38.7522 51.1437 46.7975 42.3281 46.7975 41.925V35.7375L57.6542 18.6875C57.7967 18.4625 57.8115 18.1687 57.6898 17.9281Z" fill="black"/>
<path d="M36.1818 37.0955C35.8275 37.0955 27.4318 23.6345 27.4318 24.0076L27.8676 37.1135C27.9562 40.3756 27.8162 44.2426 27.4333 44.9047C27.4048 44.9438 27.3762 44.989 27.3562 45.0341C26.8991 46.0362 25.3848 47.0744 23.6448 47.0744C21.8362 47.0744 19.7077 45.4313 19.0906 43.5595C19.0364 43.3933 18.9228 43.2559 18.7739 43.1767C18.625 43.0974 18.4526 43.0825 18.2934 43.1352L12.4449 45.0642C12.1421 45.1635 11.9592 45.4795 12.0078 45.8105C12.0106 45.8316 12.0164 45.8526 12.0192 45.8707C12.6821 51.1611 17.4305 54.7122 23.8648 54.7122C30.3019 54.7122 35.0533 51.1581 35.7161 45.8647C35.7218 45.8346 35.7275 45.8075 35.7304 45.7774C36.1761 41.2574 36.1818 37.1377 36.1818 37.0955Z" fill="black"/>
</svg>
